<?xml version="1.0" encoding="UTF-8"?>
<svg xmlns="http://www.w3.org/2000/svg" xmlns:xlink="http://www.w3.org/1999/xlink" width="170px" height="36px" viewBox="0 0 169 36" version="1.1">
<g id="surface1">
<path style=" stroke:none;fill-rule:nonzero;fill:rgb(20%,58.431373%,100%);fill-opacity:1;" d="M 10.867188 9.492188 L 9.460938 14.6875 L 17.503906 9.464844 L 12.242188 29.179688 L 17.585938 29.183594 L 25.351562 0.0625 "/>
<path style=" stroke:none;fill-rule:nonzero;fill:rgb(2.745098%,14.901961%,32.941176%);fill-opacity:1;" d="M 2.210938 20.894531 L 0 29.183594 L 10.945312 29.183594 L 15.425781 12.324219 Z M 40.238281 13.597656 C 39.96875 14.597656 39.453125 15.332031 38.683594 15.800781 C 37.917969 16.269531 36.839844 16.503906 35.453125 16.503906 L 31.035156 16.503906 L 32.585938 10.695312 L 37.003906 10.695312 C 38.390625 10.695312 39.34375 10.929688 39.859375 11.402344 C 40.378906 11.878906 40.503906 12.605469 40.238281 13.609375 M 44.808594 13.484375 C 45.371094 11.386719 45.136719 9.773438 44.109375 8.644531 C 43.085938 7.523438 41.285156 6.957031 38.714844 6.957031 L 28.863281 6.957031 L 22.933594 29.195312 L 27.71875 29.195312 L 30.109375 20.230469 L 33.25 20.230469 C 33.953125 20.230469 34.507812 20.347656 34.914062 20.570312 C 35.320312 20.804688 35.558594 21.207031 35.628906 21.789062 L 36.484375 29.195312 L 41.613281 29.195312 L 40.78125 22.292969 C 40.613281 20.75 39.910156 19.847656 38.675781 19.578125 C 40.25 19.121094 41.566406 18.359375 42.628906 17.300781 C 43.683594 16.25 44.4375 14.933594 44.808594 13.492188 M 56.445312 21.234375 C 56.042969 22.742188 55.429688 23.878906 54.597656 24.675781 C 53.761719 25.472656 52.765625 25.867188 51.605469 25.867188 C 50.421875 25.867188 49.621094 25.484375 49.199219 24.703125 C 48.773438 23.921875 48.757812 22.792969 49.152344 21.316406 C 49.546875 19.835938 50.175781 18.679688 51.042969 17.847656 C 51.90625 17.015625 52.917969 16.597656 54.078125 16.597656 C 55.238281 16.597656 56.03125 17 56.433594 17.800781 C 56.84375 18.605469 56.851562 19.753906 56.453125 21.25 Z M 58.542969 13.367188 L 57.941406 15.617188 C 57.683594 14.808594 57.183594 14.164062 56.441406 13.679688 C 55.695312 13.203125 54.777344 12.960938 53.679688 12.960938 C 52.332031 12.960938 51.039062 13.3125 49.796875 14.011719 C 48.558594 14.710938 47.46875 15.695312 46.542969 16.96875 C 45.613281 18.242188 44.9375 19.683594 44.5 21.304688 C 44.070312 22.9375 43.984375 24.363281 44.242188 25.597656 C 44.507812 26.84375 45.070312 27.796875 45.9375 28.457031 C 46.808594 29.128906 47.925781 29.460938 49.289062 29.460938 C 50.375 29.46875 51.445312 29.230469 52.429688 28.773438 C 53.402344 28.332031 54.265625 27.683594 54.960938 26.871094 L 54.339844 29.214844 L 58.96875 29.214844 L 63.195312 13.375 L 58.554688 13.375 Z M 79.828125 13.367188 L 66.367188 13.367188 L 65.425781 16.898438 L 73.257812 16.898438 L 62.902344 25.886719 L 62.019531 29.203125 L 75.914062 29.203125 L 76.855469 25.671875 L 68.460938 25.671875 L 78.976562 16.546875 M 91.679688 21.207031 C 91.261719 22.765625 90.644531 23.941406 89.828125 24.703125 C 89.011719 25.472656 88.023438 25.859375 86.863281 25.859375 C 84.4375 25.859375 83.640625 24.308594 84.46875 21.207031 C 84.878906 19.667969 85.5 18.507812 86.328125 17.726562 C 87.15625 16.945312 88.164062 16.554688 89.34375 16.554688 C 90.503906 16.554688 91.285156 16.941406 91.691406 17.722656 C 92.09375 18.503906 92.089844 19.664062 91.679688 21.207031 M 94.386719 13.960938 C 93.320312 13.296875 91.960938 12.960938 90.304688 12.960938 C 88.625 12.960938 87.070312 13.292969 85.636719 13.957031 C 84.214844 14.617188 82.960938 15.597656 81.980469 16.828125 C 80.972656 18.074219 80.25 19.535156 79.804688 21.203125 C 79.367188 22.863281 79.3125 24.324219 79.652344 25.570312 C 79.992188 26.816406 80.703125 27.777344 81.773438 28.4375 C 82.851562 29.105469 84.226562 29.441406 85.914062 29.441406 C 87.570312 29.441406 89.113281 29.105469 90.53125 28.4375 C 91.953125 27.765625 93.164062 26.816406 94.171875 25.5625 C 95.179688 24.3125 95.902344 22.855469 96.347656 21.1875 C 96.792969 19.519531 96.847656 18.066406 96.507812 16.8125 C 96.171875 15.566406 95.464844 14.609375 94.402344 13.941406 M 110.914062 17.597656 L 112.101562 13.289062 C 111.699219 13.082031 111.171875 12.972656 110.511719 12.972656 C 109.453125 12.972656 108.433594 13.238281 107.453125 13.769531 C 106.609375 14.226562 105.890625 14.863281 105.285156 15.664062 L 105.902344 13.34375 L 104.558594 13.351562 L 101.257812 13.351562 L 97.003906 29.1875 L 101.695312 29.1875 L 103.902344 20.90625 C 104.226562 19.703125 104.804688 18.757812 105.636719 18.085938 C 106.464844 17.410156 107.5 17.070312 108.75 17.070312 C 109.515625 17.070312 110.230469 17.25 110.910156 17.601562 M 123.976562 21.285156 C 123.574219 22.761719 122.96875 23.890625 122.136719 24.671875 C 121.308594 25.457031 120.308594 25.847656 119.148438 25.847656 C 117.992188 25.847656 117.195312 25.453125 116.777344 24.664062 C 116.347656 23.871094 116.339844 22.726562 116.742188 21.226562 C 117.144531 19.722656 117.757812 18.570312 118.605469 17.773438 C 119.453125 16.96875 120.453125 16.570312 121.613281 16.570312 C 122.753906 16.570312 123.519531 16.980469 123.929688 17.816406 C 124.339844 18.648438 124.351562 19.804688 123.957031 21.285156 M 127.238281 13.988281 C 126.367188 13.289062 125.257812 12.941406 123.910156 12.941406 C 122.730469 12.941406 121.605469 13.207031 120.539062 13.75 C 119.472656 14.292969 118.609375 15.03125 117.945312 15.96875 L 117.960938 15.859375 L 118.746094 13.34375 L 114.164062 13.34375 L 112.996094 17.726562 L 112.960938 17.878906 L 108.144531 35.929688 L 112.84375 35.929688 L 115.269531 26.84375 C 115.511719 27.652344 116 28.285156 116.75 28.746094 C 117.5 29.203125 118.425781 29.429688 119.523438 29.429688 C 120.886719 29.429688 122.191406 29.097656 123.425781 28.433594 C 124.664062 27.769531 125.734375 26.8125 126.644531 25.574219 C 127.554688 24.339844 128.230469 22.90625 128.660156 21.28125 C 129.097656 19.65625 129.1875 18.207031 128.9375 16.941406 C 128.683594 15.671875 128.121094 14.6875 127.253906 13.992188 M 142.832031 21.21875 C 142.429688 22.714844 141.8125 23.863281 140.984375 24.652344 C 140.15625 25.445312 139.15625 25.839844 137.996094 25.839844 C 136.808594 25.839844 136.007812 25.457031 135.585938 24.675781 C 135.160156 23.898438 135.152344 22.765625 135.542969 21.289062 C 135.9375 19.808594 136.5625 18.652344 137.425781 17.820312 C 138.292969 16.988281 139.304688 16.570312 140.464844 16.570312 C 141.625 16.570312 142.410156 16.972656 142.820312 17.773438 C 143.230469 18.570312 143.234375 19.722656 142.832031 21.222656 Z M 144.925781 13.347656 L 144.328125 15.597656 C 144.066406 14.785156 143.566406 14.140625 142.828125 13.660156 C 142.078125 13.179688 141.160156 12.941406 140.0625 12.941406 C 138.714844 12.941406 137.414062 13.292969 136.171875 13.992188 C 134.933594 14.691406 133.847656 15.671875 132.917969 16.941406 C 131.992188 18.210938 131.3125 19.65625 130.875 21.277344 C 130.441406 22.90625 130.359375 24.335938 130.617188 25.578125 C 130.878906 26.8125 131.441406 27.769531 132.3125 28.433594 C 133.179688 29.097656 134.300781 29.433594 135.664062 29.433594 C 136.761719 29.433594 137.808594 29.203125 138.804688 28.742188 C 139.773438 28.300781 140.636719 27.652344 141.332031 26.839844 L 140.707031 29.1875 L 145.335938 29.1875 L 149.5625 13.351562 L 144.933594 13.351562 Z M 168.996094 13.351562 L 169 13.347656 L 166.15625 13.347656 C 166.0625 13.347656 165.984375 13.351562 165.902344 13.355469 L 164.425781 13.355469 L 163.667969 14.410156 L 163.480469 14.660156 L 163.398438 14.789062 L 157.398438 23.183594 L 156.160156 13.351562 L 151.246094 13.351562 L 153.734375 28.292969 L 148.242188 35.9375 L 153.136719 35.9375 L 154.46875 34.042969 C 154.503906 33.988281 154.539062 33.941406 154.582031 33.882812 L 156.136719 31.667969 L 156.179688 31.605469 L 163.132812 21.703125 L 168.992188 13.367188 L 169 13.363281 L 168.996094 13.363281 Z M 168.996094 13.351562 "/>
</g>
</svg>
